<svg width="59" height="67" viewBox="0 0 59 67" fill="none" xmlns="http://www.w3.org/2000/svg">
<path fill-rule="evenodd" clip-rule="evenodd" d="M29.3287 30.7811C29.3287 30.7811 36.3586 26.3018 41.6703 20.9253C42.6076 23.3745 43.1352 26.4131 43.1352 30.1098C43.1352 34.4459 41.5134 39.125 39.3816 43.4028C43.2169 38.0074 46.6846 31.4975 46.6846 25.5966C46.6846 22.6392 46.2948 20.0854 45.5819 17.903C48.7064 12.1615 51.1638 5.90873 51.5718 0C55.5928 4.64621 59.6552 13.4857 57.9149 22.4215C56.4865 29.7559 47.5769 38.4558 47.5769 38.4558L50.5149 41.8387L29.3288 67L7.9024 41.8387L10.8737 38.4558C10.8737 38.4558 1.86311 29.7559 0.418492 22.4215C-1.34155 13.4857 2.76698 4.64621 6.83357 0C7.24618 5.90873 9.73142 12.1615 12.8914 17.903C12.1704 20.0854 11.7761 22.6392 11.7761 25.5966C11.7761 31.4975 15.2831 38.0074 19.1619 43.4028C17.0059 39.125 15.3657 34.4459 15.3657 30.1098C15.3657 26.4131 15.8993 23.3745 16.8473 20.9253C22.2192 26.3018 29.3287 30.7811 29.3287 30.7811Z" fill="#EAEAEA"/>
</svg>
