<?xml version="1.0" encoding="UTF-8" standalone="no"?>
<svg
   xmlns:dc="http://purl.org/dc/elements/1.1/"
   xmlns:cc="http://creativecommons.org/ns#"
   xmlns:rdf="http://www.w3.org/1999/02/22-rdf-syntax-ns#"
   xmlns:svg="http://www.w3.org/2000/svg"
   xmlns="http://www.w3.org/2000/svg"
   xmlns:sodipodi="http://sodipodi.sourceforge.net/DTD/sodipodi-0.dtd"
   xmlns:inkscape="http://www.inkscape.org/namespaces/inkscape"
   inkscape:version="1.0 (4035a4fb49, 2020-05-01)"
   sodipodi:docname="logo.svg"
   id="svg848"
   version="1.1"
   viewBox="0 0 208.271 88.401672"
   height="88.401672mm"
   width="208.271mm">
  <defs
     id="defs842">
    <rect
       id="rect1426"
       height="6.2366071"
       width="6.9925594"
       y="146.46577"
       x="57.074406" />
  </defs>
  <sodipodi:namedview
     fit-margin-bottom="0"
     fit-margin-right="0"
     fit-margin-left="0"
     fit-margin-top="0"
     inkscape:window-maximized="0"
     inkscape:window-y="0"
     inkscape:window-x="1280"
     inkscape:window-height="1362"
     inkscape:window-width="1264"
     showgrid="false"
     inkscape:document-rotation="0"
     inkscape:current-layer="layer1"
     inkscape:document-units="mm"
     inkscape:cy="-36.222339"
     inkscape:cx="236.4737"
     inkscape:zoom="0.49497475"
     inkscape:pageshadow="2"
     inkscape:pageopacity="0.0"
     borderopacity="1.0"
     bordercolor="#666666"
     pagecolor="#ffffff"
     id="base" />
  <metadata
     id="metadata845">
    <rdf:RDF>
      <cc:Work
         rdf:about="">
        <dc:format>image/svg+xml</dc:format>
        <dc:type
           rdf:resource="http://purl.org/dc/dcmitype/StillImage" />
        <dc:title></dc:title>
      </cc:Work>
    </rdf:RDF>
  </metadata>
  <g
     transform="translate(-0.81243397,-98.632728)"
     id="layer1"
     inkscape:groupmode="layer"
     inkscape:label="Слой 1">
    <g
       transform="matrix(2.3498296,0,0,2.3498296,0.15942826,97.980551)"
       id="g3407">
      <path
         d="m 37.640699,18.626282 -1.579353,-0.97766 c -0.0133,-0.15384 -0.02839,-0.30731 -0.04493,-0.46007 l 1.357222,-1.26593 c 0.138023,-0.12868 0.199845,-0.31918 0.162464,-0.50357 -0.0363,-0.18511 -0.166058,-0.33751 -0.34254,-0.40328 l -1.734987,-0.64878 c -0.04349,-0.15024 -0.08914,-0.29941 -0.135866,-0.44786 l 1.082256,-1.50315 c 0.110346,-0.15276 0.13299,-0.35152 0.0611,-0.52585 -0.07189,-0.17361 -0.228959,-0.29797 -0.414786,-0.32852 l -1.829516,-0.29761 c -0.07117,-0.13875 -0.145212,-0.27533 -0.219974,-0.41084 l 0.768829,-1.6875397 c 0.07872,-0.17181 0.06254,-0.37165 -0.04241,-0.52765 -0.104595,-0.15671 -0.281796,-0.24837 -0.470858,-0.24118 l -1.856836,0.0647 c -0.09597,-0.12005 -0.193735,-0.23902 -0.293298,-0.35584 l 0.426648,-1.80867 c 0.04313,-0.18367 -0.01114,-0.37597 -0.144852,-0.50932 -0.132631,-0.13299 -0.325288,-0.18798 -0.508958,-0.14485 l -1.808313,0.42629 c -0.117175,-0.0992 -0.236148,-0.19733 -0.356558,-0.2933 l 0.06506,-1.85684 c 0.0072,-0.18798 -0.08447,-0.36662 -0.24118,-0.47085 -0.157073,-0.10496 -0.35584,-0.12077 -0.52729,-0.0428 l -1.687183,0.76919 c -0.136225,-0.0748 -0.27281,-0.1488 -0.410833,-0.22033 l -0.29833,-1.82988 c -0.03019,-0.18547 -0.154557,-0.3429 -0.328523,-0.41479 -0.173606,-0.0722 -0.372733,-0.0489 -0.525492,0.0611 l -1.504237,1.08225 c -0.148087,-0.0471 -0.296893,-0.0924 -0.447136,-0.13551 L 23.161261,0.98200235 c -0.06578,-0.17684 -0.218177,-0.3066 -0.403285,-0.34326 -0.184749,-0.0363 -0.37489,0.0252 -0.503208,0.16246 L 20.988842,2.1595023 c -0.15276,-0.0169 -0.306598,-0.0324 -0.460076,-0.0449 l -0.97766,-1.57970995 c -0.09885,-0.15995 -0.273889,-0.25735 -0.462232,-0.25735 -0.188344,0 -0.363388,0.0974 -0.461873,0.25735 l -0.97766,1.57970995 c -0.153838,0.0126 -0.307676,0.028 -0.460435,0.0449 L 15.92262,0.80120235 c -0.128318,-0.1373 -0.318818,-0.19876 -0.503208,-0.16246 -0.185108,0.037 -0.337508,0.16642 -0.403284,0.34326 L 14.367349,2.7173423 c -0.150243,0.0431 -0.299049,0.0888 -0.447495,0.13551 l -1.503872,-1.08225 c -0.152759,-0.11035 -0.351886,-0.13371 -0.525852,-0.0611 -0.173606,0.0719 -0.29833,0.22932 -0.328522,0.41479 l -0.29833,1.82988 c -0.138023,0.0715 -0.274608,0.14521 -0.410834,0.22033 l -1.6871835,-0.76919 c -0.17145,-0.0784 -0.371295,-0.0622 -0.527289,0.0428 -0.156713,0.10424 -0.248369,0.28288 -0.24118,0.47086 l 0.0647,1.85684 c -0.120051,0.096 -0.239024,0.19409 -0.356559,0.2933 l -1.808312,-0.42629 c -0.183671,-0.0428 -0.376327,0.0119 -0.509318,0.14485 -0.133709,0.13335 -0.187984,0.32565 -0.144852,0.50932 l 0.425929,1.80867 c -0.09884,0.11718 -0.19661,0.23579 -0.292579,0.35584 l -1.856836,-0.0647 c -0.187265,-0.005 -0.366263,0.0845 -0.470858,0.24118 -0.104955,0.15599 -0.12077,0.35584 -0.04277,0.52765 l 0.769188,1.6875397 c -0.07476,0.13551 -0.148807,0.27209 -0.220334,0.41084 l -1.829519,0.29761 c -0.185828,0.0302 -0.342541,0.15455 -0.414787,0.32852 -0.07189,0.17433 -0.04852,0.37309 0.0611,0.52585 l 1.082256,1.50315 c -0.04709,0.14845 -0.09273,0.29762 -0.135866,0.44786 l -1.73534758,0.64878 c -0.1761227,0.0658 -0.3058783,0.21817 -0.3425406,0.40328 -0.036662,0.18475 0.024801,0.37489 0.1624641,0.50357 l 1.35758208,1.26593 c -0.01689,0.15276 -0.03199,0.30659 -0.04493,0.46007 l -1.57935288,0.97766 c -0.1599481,0.0988 -0.2573547,0.27353 -0.2573547,0.46223 0,0.18871 0.097407,0.36339 0.2573547,0.46188 l 1.57935288,0.97766 c 0.01294,0.15383 0.02804,0.30731 0.04493,0.46007 l -1.35758228,1.26629 c -0.1376632,0.12832 -0.1991264,0.31882 -0.1624641,0.50321 0.036662,0.1851 0.1664179,0.33714 0.3425406,0.40328 l 1.73534678,0.64878 c 0.04313,0.15024 0.08878,0.29941 0.135866,0.44785 l -1.082255,1.50352 c -0.109987,0.15311 -0.13335,0.35188 -0.0611,0.52549 0.07225,0.17432 0.229319,0.29869 0.415146,0.32852 l 1.829159,0.29761 c 0.07153,0.13874 0.144852,0.27533 0.220333,0.41155 l -0.769188,1.68683 c -0.07836,0.17145 -0.06218,0.37093 0.04277,0.52765 0.104954,0.15707 0.283593,0.24873 0.470858,0.24118 l 1.856117,-0.0651 c 0.09669,0.12077 0.194095,0.23902 0.293298,0.35656 l -0.425929,1.80903 c -0.04313,0.18331 0.01114,0.37489 0.144852,0.50824 0.132631,0.13407 0.325647,0.18762 0.509318,0.14449 l 1.808312,-0.42593 c 0.117535,0.0999 0.236508,0.19697 0.356559,0.29258 l -0.0647,1.85719 c -0.0072,0.18799 0.08447,0.36627 0.24118,0.47122 0.155994,0.1046 0.355839,0.12041 0.527289,0.042 l 1.6871835,-0.76883 c 0.135867,0.0755 0.272451,0.14881 0.410834,0.22034 l 0.29833,1.8288 c 0.03019,0.18618 0.154556,0.34362 0.328522,0.41514 0.173607,0.0722 0.373093,0.0489 0.525852,-0.0607 l 1.503153,-1.08297 c 0.148446,0.0471 0.297611,0.0931 0.447855,0.13622 l 0.648778,1.73463 c 0.06578,0.17612 0.218176,0.3066 0.403285,0.34254 0.184749,0.0374 0.37489,-0.0244 0.503208,-0.16246 l 1.266285,-1.35758 c 0.15276,0.0176 0.306598,0.0324 0.460435,0.046 l 0.977661,1.57935 c 0.09849,0.15923 0.273529,0.25735 0.461872,0.25735 0.188344,0 0.363388,-0.0978 0.462232,-0.25735 l 0.977661,-1.57935 c 0.153837,-0.0137 0.307316,-0.0284 0.460075,-0.046 l 1.265927,1.35758 c 0.128318,0.13802 0.318818,0.19984 0.503207,0.16246 0.185109,-0.0363 0.337509,-0.16642 0.403285,-0.34254 l 0.648778,-1.73463 c 0.150244,-0.0431 0.299409,-0.0891 0.447855,-0.13622 l 1.503512,1.08297 c 0.15276,0.10963 0.351886,0.13299 0.525493,0.0607 0.173966,-0.0715 0.29833,-0.22932 0.328522,-0.41514 l 0.298331,-1.8288 c 0.138022,-0.0715 0.274607,-0.14593 0.410833,-0.22034 l 1.687183,0.76883 c 0.17145,0.0784 0.370936,0.0625 0.52729,-0.042 0.156713,-0.10495 0.248009,-0.28287 0.24118,-0.47122 l -0.0647,-1.85719 c 0.120051,-0.096 0.239023,-0.19266 0.356199,-0.29258 l 1.808312,0.42593 c 0.183671,0.0431 0.376327,-0.0104 0.508959,-0.14449 0.133709,-0.13335 0.187984,-0.32493 0.144851,-0.50824 l -0.425929,-1.80903 c 0.0992,-0.11754 0.19697,-0.23579 0.292579,-0.35656 l 1.856836,0.0651 c 0.187265,0.007 0.366264,-0.0841 0.470859,-0.24118 0.104955,-0.15672 0.121129,-0.3562 0.04241,-0.52765 l -0.768822,-1.68683 c 0.07512,-0.13622 0.148805,-0.27281 0.219973,-0.41155 l 1.829519,-0.29761 c 0.186187,-0.0298 0.3429,-0.1542 0.414787,-0.32852 0.07189,-0.17361 0.04924,-0.37238 -0.0611,-0.52549 l -1.082255,-1.50352 c 0.04673,-0.14844 0.09237,-0.29761 0.135866,-0.44785 l 1.734987,-0.64878 c 0.176482,-0.0661 0.306598,-0.21818 0.342541,-0.40328 0.03738,-0.18475 -0.02444,-0.37489 -0.162464,-0.50321 l -1.357223,-1.26629 c 0.01653,-0.15276 0.03163,-0.30659 0.04493,-0.46007 l 1.579353,-0.97766 c 0.159948,-0.0985 0.257355,-0.27353 0.257355,-0.46188 0,-0.18834 -0.09705,-0.36338 -0.256995,-0.46223 z m -10.570594,13.10173 c -0.60313,-0.13012 -0.986646,-0.72462 -0.85725,-1.32955 0.129037,-0.60421 0.723181,-0.9888 1.325952,-0.85868 0.60313,0.12903 0.987365,0.72461 0.857969,1.32846 -0.129397,0.60385 -0.7239,0.98881 -1.326671,0.85977 z m -0.536635,-3.62957 c -0.550293,-0.11789 -1.091601,0.2322 -1.209495,0.78357 l -0.560717,2.61668 c -1.730315,0.78536 -3.651849,1.22172 -5.675463,1.22172 -2.06998,0 -4.033208,-0.45792 -5.794434,-1.27671 l -0.560358,-2.61668 c -0.117894,-0.55066 -0.659202,-0.90146 -1.209136,-0.78321 l -2.3100825,0.49602 c -0.428805,-0.44139 -0.827776,-0.91152 -1.194399,-1.4079 H 19.259605 c 0.127239,0 0.212066,-0.023 0.212066,-0.13874 v -3.97606 c 0,-0.11574 -0.08483,-0.13874 -0.212066,-0.13874 h -3.287383 v -2.52036 h 3.555521 c 0.324568,0 1.735347,0.0927 2.186436,1.89602 0.141258,0.55461 0.451449,2.3586 0.663515,2.93621 0.211348,0.6477 1.071833,1.94167 1.988749,1.94167 h 5.601059 c 0.06362,0 0.131553,-0.007 0.203081,-0.0201 -0.388549,0.52801 -0.814837,1.02762 -1.273835,1.49452 z m -15.546238,3.57494 c -0.60313,0.13011 -1.1969155,-0.25448 -1.3266715,-0.85869 -0.129036,-0.60529 0.25448,-1.19943 0.8576105,-1.32955 0.60313,-0.12904 1.197274,0.25556 1.326671,0.85977 0.129036,0.60385 -0.254839,1.19907 -0.85761,1.32847 z M 6.7232665,14.382802 c 0.250166,0.56468 -0.0043,1.22639 -0.568265,1.4762 -0.563952,0.25053 -1.223873,-0.004 -1.474039,-0.56934 -0.250166,-0.56503 0.0043,-1.22567 0.568265,-1.4762 0.564312,-0.25017 1.223873,0.004 1.474039,0.56934 z m -1.310496,3.10659 2.40641,-1.06931 c 0.513991,-0.22824 0.746185,-0.83066 0.517945,-1.34572 l -0.49566,-1.12072 h 1.949211 v 8.786 h -3.932567 c -0.341103,-1.19907 -0.524055,-2.46463 -0.524055,-3.77261 0,-0.49926 0.02696,-0.99276 0.07872,-1.47764 z m 10.5601705,-0.85329 v -2.58973 h 4.64173 c 0.239742,0 1.692934,0.27713 1.692934,1.3637 0,0.90218 -1.114605,1.22567 -2.031161,1.22567 h -4.303503 z m 16.868955,2.33093 c 0,0.34361 -0.01258,0.68364 -0.03774,1.02115 h -1.411138 c -0.141257,0 -0.198048,0.0927 -0.198048,0.23111 v 0.64806 c 0,1.52544 -0.860125,1.8572 -1.613858,1.94166 -0.71779,0.0809 -1.513577,-0.30048 -1.611702,-0.73971 -0.423414,-2.38161 -1.128982,-2.89021 -2.243228,-3.76902 1.382743,-0.8781 2.821557,-2.1735 2.821557,-3.90741 0,-1.87229 -1.283539,-3.0516 -2.158401,-3.62993 C 25.16187,9.9538623 23.80285,9.7917523 23.436228,9.7917523 H 8.8421295 c 1.9790445,-2.20872 4.6611405,-3.77333 7.6947635,-4.34268 l 1.720251,1.80472 c 0.388907,0.40724 1.033013,0.42234 1.439892,0.0331 l 1.924769,-1.84102 c 4.033208,0.75086 7.447831,3.2615 9.415732,6.7059597 l -1.317685,2.97611 c -0.227521,0.51507 0.0047,1.11748 0.518304,1.34572 l 2.536885,1.12683 c 0.04385,0.45037 0.06686,0.90541 0.06686,1.36657 z M 18.257862,3.9139323 c 0.445699,-0.42701 1.152705,-0.41011 1.579353,0.0363 0.425929,0.4475 0.409755,1.15522 -0.03702,1.58187 -0.445699,0.42701 -1.152705,0.41048 -1.579353,-0.0367 -0.42557,-0.44677 -0.409396,-1.1545 0.03702,-1.58151 z M 31.33407,14.437082 c 0.249807,-0.56467 0.909728,-0.81951 1.47368,-0.56899 0.563951,0.25017 0.818431,0.91153 0.568265,1.4762 -0.249807,0.56503 -0.909728,0.81987 -1.474039,0.56934 -0.563233,-0.25016 -0.817712,-0.91116 -0.567906,-1.47655 z"
         id="path3"
         style="stroke-width:0.359434" />
      <text
         xml:space="preserve"
         style="font-style:normal;font-variant:normal;font-weight:normal;font-stretch:normal;font-size:22.5778px;line-height:125%;font-family:'Rockwell Extra Bold';-inkscape-font-specification:'Rockwell Extra Bold, ';letter-spacing:0px;word-spacing:0px;fill:#000000;fill-opacity:1;stroke:#000000;stroke-width:0.264583px;stroke-linecap:butt;stroke-linejoin:miter;stroke-opacity:1"
         x="37.608631"
         y="26.836298"
         id="text1422"><tspan
           sodipodi:role="line"
           id="tspan1420"
           x="37.608631"
           y="26.836298"
           style="font-style:normal;font-variant:normal;font-weight:bold;font-stretch:normal;font-size:22.5778px;font-family:'Clarendon BT';-inkscape-font-specification:'Clarendon BT Bold';fill:#000000;fill-opacity:1;stroke:#000000;stroke-width:0.264583px;stroke-opacity:1">G<tspan
   style="font-size:25.4px;fill:#000000;fill-opacity:1;stroke:#000000;stroke-opacity:1"
   id="tspan1430">3</tspan>D</tspan></text>
      <text
         xml:space="preserve"
         id="text1424"
         style="font-size:2.82222px;line-height:125%;font-family:Sans;letter-spacing:0px;word-spacing:0px;white-space:pre;shape-inside:url(#rect1426);fill:none;stroke:#000000;stroke-width:0.264583px;stroke-linecap:butt;stroke-linejoin:miter;stroke-opacity:1;"
         transform="translate(-8.8824403,-141.17411)" />
    </g>
  </g>
</svg>
